<?xml version="1.0" encoding="UTF-8"?>
<svg id="Mask01" xmlns="http://www.w3.org/2000/svg" version="1.1" viewBox="0 0 793 1024">
  <defs>
    <style>
      .cls-1 {
        fill: #000;
        stroke-width: 0px;
      }
    </style>
  </defs>
  <clipPath clipPathUnits="objectBoundingBox">
  <polygon
    class="cls-1"
    points="243.52 815.67 212.88 795.25 236.37 691.08 260.88 531.76 234.33 511.33 236.37 453.12 265.99 400.01 285.39 363.25 289.48 283.59 311.95 265.2 332.37 276.44 332.37 322.4 363.01 339.76 367.1 373.46 386.5 408.18 419.18 448.01 432.46 394.91 438.59 359.16 431.44 332.61 461.05 298.91 514.16 308.1 530.5 337.71 537.65 367.33 570.33 391.84 577.48 416.35 567.27 456.18 558.07 512.35 558.07 588.95 559.1 698.23 564.2 740.1 548.88 749.29 548.88 767.67 530.5 773.8 530.5 804.44 525.39 856.52 459.01 873.88 442.67 848.35 432.46 832.01 441.65 763.59 413.05 756.44 407.95 796.27 374.25 803.42 380.37 826.91 349.73 854.48 305.82 860.61 243.52 858.57 238.42 833.03 243.52 815.67"/>
  </clipPath>
</svg>