<?xml version="1.0" encoding="UTF-8"?>
<svg id="Layer_2" data-name="Layer 2" xmlns="http://www.w3.org/2000/svg" version="1.1" viewBox="0 0 704 900">
  <defs>
    <style>
      .cls-1 {
        fill: none;
        stroke-width: 0px;
      }
    </style>
  </defs>
  <polygon
  class="cls-1"
  points="89.53 869.3 418.38 889.72 420.43 816.19 508.26 816.19 502.13 773.3 449.02 618.06 528.68 579.26 636.94 515.94 677.79 481.21 675.74 438.32 641.02 448.53 475.57 505.72 379.57 515.94 371.4 448.53 338.72 430.15 322.38 321.89 277.45 285.13 244.77 281.04 228.43 246.32 224.34 158.49 199.83 123.77 167.15 113.55 167.15 31.85 136.51 13.47 112 37.98 101.79 113.55 89.53 150.32 83.4 250.4 40.51 264.7 7.83 311.68 5.79 636.45 11.91 677.3 7.83 720.19 48.68 777.38 79.32 789.64 89.53 869.3"/>
</svg>